<?xml version="1.0" encoding="UTF-8"?>
<!DOCTYPE svg PUBLIC "-//W3C//DTD SVG 1.1//EN" "http://www.w3.org/Graphics/SVG/1.1/DTD/svg11.dtd">
<!-- Creator: CorelDRAW -->
<svg xmlns="http://www.w3.org/2000/svg" xml:space="preserve" width="32px" height="12px" style="shape-rendering:geometricPrecision; text-rendering:geometricPrecision; image-rendering:optimizeQuality; fill-rule:evenodd; clip-rule:evenodd"
viewBox="0 0 1.18292 0.251762"
 xmlns:xlink="http://www.w3.org/1999/xlink">
 <defs>
  <style type="text/css">
   <![CDATA[
    .fil0 {fill:white}
    .fil1 {fill:white;fill-rule:nonzero}
    .fil2 {fill:white;fill-rule:nonzero}
   ]]>
  </style>
 </defs>
 <g id="图层_x0020_1">
  <metadata id="CorelCorpID_0Corel-Layer"/>
  <g>
   <line class="fil0" x1="-0" y1="0.125378" x2="1.00237" y2= "0.125378" />
   <polygon id="1" class="fil1" points="1.00237,0.147932 -0,0.147932 -0,0.102824 1.00237,0.102824 "/>
  </g>
  <g>
   <polygon class="fil0" points="1.18233,0.125852 1.05701,0.25117 0.931751,0.125852 1.05701,0.000591964 "/>
   <path id="1" class="fil2" d="M1.0566 0.251585l-5.91964e-005 -0.000887946 0.125319 -0.125319 0.000947143 0.000947143 -0.125319 0.125319 -0.000887946 -5.91964e-005zm-5.91964e-005 -0.000887946l0.000947143 0.000947143 0 0 -5.91964e-005 5.91964e-005 0 0 0 0 -5.91964e-005 0 0 0 -5.91964e-005 5.91964e-005 0 0 -5.91964e-005 0 0 0 -5.91964e-005 0 0 0 -5.91964e-005 0 0 0 -5.91964e-005 0 0 0 -5.91964e-005 0 0 0 -5.91964e-005 0 0 0 -5.91964e-005 0 0 0 -5.91964e-005 -5.91964e-005 0 0 -5.91964e-005 0 0 0 -5.91964e-005 0 0 -5.91964e-005 -5.91964e-005 0 0 0 -5.91964e-005 -5.91964e-005 0 0 0 0 -5.91964e-005 -5.91964e-005 0 0 0 -5.91964e-005 -5.91964e-005 0 0 -5.91964e-005 0 0 0 -5.91964e-005 0 0 -5.91964e-005 -5.91964e-005 0 0 0 -5.91964e-005 0 0 0 -5.91964e-005 0 0 0 -5.91964e-005 0 0 0 -5.91964e-005 0 0 0 -5.91964e-005 0 0 0 -5.91964e-005 0 0 0 -5.91964e-005 0 0 5.91964e-005 -5.91964e-005 0 0 0 -5.91964e-005 0 0 0 0 5.91964e-005 -5.91964e-005 0 0zm-0.12526 -0.125319l0.000887946 5.91964e-005 0.12526 0.125319 -0.00082875 0.00082875 -0.12526 -0.125319 -5.91964e-005 -0.000887946zm0.000887946 5.91964e-005l-0.00082875 0.00082875 0 0 -5.91964e-005 -5.91964e-005 0 0 0 -5.91964e-005 -5.91964e-005 0 0 -5.91964e-005 0 0 0 -5.91964e-005 0 0 -5.91964e-005 -5.91964e-005 0 0 0 -5.91964e-005 0 0 0 -5.91964e-005 0 0 0 -5.91964e-005 0 0 0 -5.91964e-005 0 0 0 -5.91964e-005 0 0 0 -5.91964e-005 0 0 0 -5.91964e-005 0 0 5.91964e-005 -5.91964e-005 0 0 0 -5.91964e-005 0 0 0 0 5.91964e-005 -5.91964e-005 0 0 0 0 5.91964e-005 -5.91964e-005 0 0 0 0 5.91964e-005 0 0 0 5.91964e-005 -5.91964e-005 0 0 5.91964e-005 0 0 0 5.91964e-005 0 0 0 5.91964e-005 0 0 0 5.91964e-005 0 0 0 5.91964e-005 0 0 0 5.91964e-005 0 0 0 5.91964e-005 0 0 0 5.91964e-005 5.91964e-005 0 0 5.91964e-005 0 0 0 5.91964e-005 0 0 5.91964e-005 5.91964e-005 0 0 0 5.91964e-005 5.91964e-005 0 0zm0.12526 -0.12526l5.91964e-005 0.000887946 -0.12526 0.12526 -0.000947143 -0.000947143 0.12526 -0.12526 0.000887946 5.91964e-005zm5.91964e-005 0.000887946l-0.000947143 -0.000947143 0 0 5.91964e-005 -5.91964e-005 0 0 0 0 5.91964e-005 0 0 0 5.91964e-005 -5.91964e-005 0 0 5.91964e-005 0 0 0 5.91964e-005 0 0 0 5.91964e-005 0 0 0 5.91964e-005 0 0 0 5.91964e-005 0 0 0 5.91964e-005 0 0 0 5.91964e-005 0 0 0 5.91964e-005 5.91964e-005 0 0 5.91964e-005 0 0 0 5.91964e-005 0 0 5.91964e-005 5.91964e-005 0 0 0 5.91964e-005 5.91964e-005 0 0 0 0 5.91964e-005 5.91964e-005 0 0 0 5.91964e-005 5.91964e-005 0 0 5.91964e-005 0 0 0 5.91964e-005 0 0 5.91964e-005 5.91964e-005 0 0 0 5.91964e-005 0 0 0 5.91964e-005 0 0 0 5.91964e-005 0 0 0 5.91964e-005 0 0 0 5.91964e-005 0 0 0 5.91964e-005 0 0 0 5.91964e-005 0 0 -5.91964e-005 5.91964e-005 0 0 0 5.91964e-005 0 0 0 0 -5.91964e-005 5.91964e-005 0 0zm0.125319 0.12526l-0.000887946 -5.91964e-005 -0.125319 -0.12526 0.00082875 -0.00082875 0.125319 0.12526 5.91964e-005 0.000887946zm-0.000887946 -5.91964e-005l0.00082875 -0.00082875 0 0 5.91964e-005 5.91964e-005 0 0 0 5.91964e-005 5.91964e-005 0 0 5.91964e-005 0 0 0 5.91964e-005 0 0 5.91964e-005 5.91964e-005 0 0 0 5.91964e-005 0 0 0 5.91964e-005 0 0 0 5.91964e-005 0 0 0 5.91964e-005 0 0 0 5.91964e-005 0 0 0 5.91964e-005 0 0 0 5.91964e-005 0 0 -5.91964e-005 5.91964e-005 0 0 0 5.91964e-005 0 0 0 0 -5.91964e-005 5.91964e-005 0 0 0 0 -5.91964e-005 5.91964e-005 0 0 0 0 -5.91964e-005 0 0 0 -5.91964e-005 5.91964e-005 0 0 -5.91964e-005 0 0 0 -5.91964e-005 0 0 0 -5.91964e-005 0 0 0 -5.91964e-005 0 0 0 -5.91964e-005 0 0 0 -5.91964e-005 0 0 0 -5.91964e-005 0 0 0 -5.91964e-005 -5.91964e-005 0 0 -5.91964e-005 0 0 0 -5.91964e-005 0 0 -5.91964e-005 -5.91964e-005 0 0 0 -5.91964e-005 -5.91964e-005 0 0z"/>
  </g>
 </g>
</svg>
