<?xml version="1.0" encoding="UTF-8"?>
<!DOCTYPE svg PUBLIC "-//W3C//DTD SVG 1.1//EN" "http://www.w3.org/Graphics/SVG/1.1/DTD/svg11.dtd">
<!-- Creator: CorelDRAW -->
<svg xmlns="http://www.w3.org/2000/svg" xml:space="preserve" width="32px" height="12px" style="shape-rendering:geometricPrecision; text-rendering:geometricPrecision; image-rendering:optimizeQuality; fill-rule:evenodd; clip-rule:evenodd"
viewBox="0 0 1.28653 0.273814"
 xmlns:xlink="http://www.w3.org/1999/xlink">
 <defs>
  <style type="text/css">
   <![CDATA[
    .fil0 {fill:#999999}
    .fil1 {fill:#999999;fill-rule:nonzero}
    .fil2 {fill:#999999;fill-rule:nonzero}
   ]]>
  </style>
 </defs>
 <g id="图层_x0020_1">
  <metadata id="CorelCorpID_0Corel-Layer"/>
  <g>
   <line class="fil0" x1="1.28653" y1="0.137454" x2="0.196363" y2= "0.137454" />
   <polygon id="1" class="fil1" points="0.196363,0.112925 1.28653,0.112925 1.28653,0.161983 0.196363,0.161983 "/>
  </g>
  <g>
   <polygon class="fil0" points="0.000643813,0.136939 0.136939,0.000643813 0.27317,0.136939 0.136939,0.27317 "/>
   <path id="1" class="fil2" d="M0.13739 0.000193144l6.43813e-005 0.000965719 -0.136295 0.136295 -0.0010301 -0.0010301 0.136295 -0.136295 0.000965719 6.43813e-005zm6.43813e-005 0.000965719l-0.0010301 -0.0010301 0 0 6.43813e-005 -6.43813e-005 0 0 0 0 6.43813e-005 0 0 0 6.43813e-005 -6.43813e-005 0 0 6.43813e-005 0 0 0 6.43813e-005 0 0 0 6.43813e-005 0 0 0 6.43813e-005 0 0 0 6.43813e-005 0 0 0 6.43813e-005 0 0 0 6.43813e-005 0 0 0 6.43813e-005 6.43813e-005 0 0 6.43813e-005 0 0 0 6.43813e-005 0 0 6.43813e-005 6.43813e-005 0 0 0 6.43813e-005 6.43813e-005 0 0 0 0 6.43813e-005 6.43813e-005 0 0 0 6.43813e-005 6.43813e-005 0 0 6.43813e-005 0 0 0 6.43813e-005 0 0 6.43813e-005 6.43813e-005 0 0 0 6.43813e-005 0 0 0 6.43813e-005 0 0 0 6.43813e-005 0 0 0 6.43813e-005 0 0 0 6.43813e-005 0 0 0 6.43813e-005 0 0 0 6.43813e-005 0 0 -6.43813e-005 6.43813e-005 0 0 0 6.43813e-005 0 0 0 0 -6.43813e-005 6.43813e-005 0 0zm0.136231 0.136295l-0.000965719 -6.43813e-005 -0.136231 -0.136295 0.000901338 -0.000901338 0.136231 0.136295 6.43813e-005 0.000965719zm-0.000965719 -6.43813e-005l0.000901338 -0.000901338 0 0 6.43813e-005 6.43813e-005 0 0 0 6.43813e-005 6.43813e-005 0 0 6.43813e-005 0 0 0 6.43813e-005 0 0 6.43813e-005 6.43813e-005 0 0 0 6.43813e-005 0 0 0 6.43813e-005 0 0 0 6.43813e-005 0 0 0 6.43813e-005 0 0 0 6.43813e-005 0 0 0 6.43813e-005 0 0 0 6.43813e-005 0 0 -6.43813e-005 6.43813e-005 0 0 0 6.43813e-005 0 0 0 0 -6.43813e-005 6.43813e-005 0 0 0 0 -6.43813e-005 6.43813e-005 0 0 0 0 -6.43813e-005 0 0 0 -6.43813e-005 6.43813e-005 0 0 -6.43813e-005 0 0 0 -6.43813e-005 0 0 0 -6.43813e-005 0 0 0 -6.43813e-005 0 0 0 -6.43813e-005 0 0 0 -6.43813e-005 0 0 0 -6.43813e-005 0 0 0 -6.43813e-005 -6.43813e-005 0 0 -6.43813e-005 0 0 0 -6.43813e-005 0 0 -6.43813e-005 -6.43813e-005 0 0 0 -6.43813e-005 -6.43813e-005 0 0zm-0.136231 0.136231l-6.43813e-005 -0.000965719 0.136231 -0.136231 0.0010301 0.0010301 -0.136231 0.136231 -0.000965719 -6.43813e-005zm-6.43813e-005 -0.000965719l0.0010301 0.0010301 0 0 -6.43813e-005 6.43813e-005 0 0 0 0 -6.43813e-005 0 0 0 -6.43813e-005 6.43813e-005 0 0 -6.43813e-005 0 0 0 -6.43813e-005 0 0 0 -6.43813e-005 0 0 0 -6.43813e-005 0 0 0 -6.43813e-005 0 0 0 -6.43813e-005 0 0 0 -6.43813e-005 0 0 0 -6.43813e-005 -6.43813e-005 0 0 -6.43813e-005 0 0 0 -6.43813e-005 0 0 -6.43813e-005 -6.43813e-005 0 0 0 -6.43813e-005 -6.43813e-005 0 0 0 0 -6.43813e-005 -6.43813e-005 0 0 0 -6.43813e-005 -6.43813e-005 0 0 -6.43813e-005 0 0 0 -6.43813e-005 0 0 -6.43813e-005 -6.43813e-005 0 0 0 -6.43813e-005 0 0 0 -6.43813e-005 0 0 0 -6.43813e-005 0 0 0 -6.43813e-005 0 0 0 -6.43813e-005 0 0 0 -6.43813e-005 0 0 0 -6.43813e-005 0 0 6.43813e-005 -6.43813e-005 0 0 0 -6.43813e-005 0 0 0 0 6.43813e-005 -6.43813e-005 0 0zm-0.136295 -0.136231l0.000965719 6.43813e-005 0.136295 0.136231 -0.000901338 0.000901338 -0.136295 -0.136231 -6.43813e-005 -0.000965719zm0.000965719 6.43813e-005l-0.000901338 0.000901338 0 0 -6.43813e-005 -6.43813e-005 0 0 0 -6.43813e-005 -6.43813e-005 0 0 -6.43813e-005 0 0 0 -6.43813e-005 0 0 -6.43813e-005 -6.43813e-005 0 0 0 -6.43813e-005 0 0 0 -6.43813e-005 0 0 0 -6.43813e-005 0 0 0 -6.43813e-005 0 0 0 -6.43813e-005 0 0 0 -6.43813e-005 0 0 0 -6.43813e-005 0 0 6.43813e-005 -6.43813e-005 0 0 0 -6.43813e-005 0 0 0 0 6.43813e-005 -6.43813e-005 0 0 0 0 6.43813e-005 -6.43813e-005 0 0 0 0 6.43813e-005 0 0 0 6.43813e-005 -6.43813e-005 0 0 6.43813e-005 0 0 0 6.43813e-005 0 0 0 6.43813e-005 0 0 0 6.43813e-005 0 0 0 6.43813e-005 0 0 0 6.43813e-005 0 0 0 6.43813e-005 0 0 0 6.43813e-005 6.43813e-005 0 0 6.43813e-005 0 0 0 6.43813e-005 0 0 6.43813e-005 6.43813e-005 0 0 0 6.43813e-005 6.43813e-005 0 0z"/>
  </g>
 </g>
</svg>
