<?xml version="1.0" standalone="no"?><!DOCTYPE svg PUBLIC "-//W3C//DTD SVG 1.1//EN" "http://www.w3.org/Graphics/SVG/1.1/DTD/svg11.dtd"><svg t="1511230743116" class="icon" style="" viewBox="0 0 1202 1024" version="1.1" xmlns="http://www.w3.org/2000/svg" p-id="1444" xmlns:xlink="http://www.w3.org/1999/xlink" width="18.78125" height="16"><defs><style type="text/css"></style></defs><path d="M1054.363826 956.727652l-48.306087-35.884522c88.954435-120.164174 135.92487-261.565217 135.92487-408.84313 0-148.390957-46.83687-294.733913-131.873392-412.093217l48.662261-35.394783C1151.154087 192.066783 1202.086957 350.96487 1202.086957 512c0 160.322783-51.110957 314.10087-147.723131 444.727652zM812.521739 809.405217a539.603478 539.603478 0 0 0 89.043478-297.405217c0-108.944696-31.966609-213.971478-92.42713-303.682783l49.819826-33.702956A601.444174 601.444174 0 0 1 961.669565 512c0 117.893565-34.237217 232.18087-98.971826 330.573913l-50.176-33.168696zM0 692.713739V331.286261h259.561739L661.147826 0v1024l-401.67513-331.286261H0z m601.043478 202.440348V128.356174L281.288348 391.524174H60.104348v240.951652h221.228522l319.710608 262.678261z" fill="#d81e06" p-id="1445"></path></svg>